<svg xmlns="http://www.w3.org/2000/svg" width="32" height="32" viewBox="0 0 32 32">
  <defs>
    <linearGradient id="g" x1="0" y1="0" x2="1" y2="1">
      <stop offset="0" stop-color="#4f86d6"/>
      <stop offset="1" stop-color="#7aa8e8"/>
    </linearGradient>
  </defs>
  <rect x="1" y="1" width="30" height="30" rx="9" fill="url(#g)"/>
  <g transform="translate(16,16)" stroke="#ffffff" stroke-width="1.7" stroke-linecap="round" fill="none">
    <g>
      <line x1="0" y1="-9.5" x2="0" y2="9.5"/>
      <line x1="0" y1="-6.5" x2="-2.6" y2="-9.2"/>
      <line x1="0" y1="-6.5" x2="2.6" y2="-9.2"/>
      <line x1="0" y1="6.5" x2="-2.6" y2="9.2"/>
      <line x1="0" y1="6.5" x2="2.6" y2="9.2"/>
    </g>
    <g transform="rotate(60)">
      <line x1="0" y1="-9.5" x2="0" y2="9.5"/>
      <line x1="0" y1="-6.5" x2="-2.6" y2="-9.2"/>
      <line x1="0" y1="-6.5" x2="2.6" y2="-9.2"/>
      <line x1="0" y1="6.5" x2="-2.6" y2="9.2"/>
      <line x1="0" y1="6.5" x2="2.6" y2="9.2"/>
    </g>
    <g transform="rotate(120)">
      <line x1="0" y1="-9.5" x2="0" y2="9.5"/>
      <line x1="0" y1="-6.5" x2="-2.6" y2="-9.2"/>
      <line x1="0" y1="-6.5" x2="2.6" y2="-9.2"/>
      <line x1="0" y1="6.5" x2="-2.6" y2="9.2"/>
      <line x1="0" y1="6.5" x2="2.6" y2="9.2"/>
    </g>
  </g>
</svg>
